<?xml version="1.0"?>
<svg xmlns="http://www.w3.org/2000/svg" id="Capa_1" enable-background="new 0 0 512 512" height="512px" viewBox="0 0 512 512" width="512px"><g><g><path d="m489.5 467c-16.211 0-31.097-8.158-39.818-21.823l-8.564-13.416c6.517-3.945 10.882-11.103 10.882-19.261 0-12.407-10.094-22.5-22.5-22.5h-272c-12.407 0-22.5 10.093-22.5 22.5 0 8.159 4.365 15.317 10.882 19.262l-8.563 13.415c-8.722 13.665-23.608 21.823-39.819 21.823-12.407 0-22.5 10.093-22.5 22.5s10.093 22.5 22.5 22.5h392c12.406 0 22.5-10.093 22.5-22.5s-10.094-22.5-22.5-22.5zm-339.538-13.752 13.859-21.712c1.474-2.309 1.572-5.238.255-7.64-1.316-2.402-3.838-3.896-6.577-3.896-4.136 0-7.5-3.364-7.5-7.5s3.364-7.5 7.5-7.5h272c4.136 0 7.5 3.364 7.5 7.5s-3.364 7.5-7.5 7.5h-242c-4.142 0-7.5 3.358-7.5 7.5s3.358 7.5 7.5 7.5h237.89l11.648 18.248c3.335 5.225 7.358 9.835 11.906 13.752h-310.887c4.548-3.918 8.571-8.527 11.906-13.752zm339.538 43.752h-392c-4.136 0-7.5-3.364-7.5-7.5s3.364-7.5 7.5-7.5h392c4.136 0 7.5 3.364 7.5 7.5s-3.364 7.5-7.5 7.5z" data-original="#000000" class="active-path" data-old_color="#000000" fill="#FFFFFF"/><path d="m493.191 305.011c2.404-3.58 3.809-7.884 3.809-12.511 0-9.777-6.271-18.114-15-21.21v-167.58c8.729-3.096 15-11.433 15-21.21 0-4.627-1.405-8.931-3.809-12.511 11.23-6.486 18.809-18.615 18.809-32.489 0-20.678-16.822-37.5-37.5-37.5h-181c-20.678 0-37.5 16.822-37.5 37.5 0 13.874 7.579 26.003 18.809 32.489-2.404 3.58-3.809 7.884-3.809 12.511 0 9.777 6.271 18.114 15 21.21v38.79h-16.29c-3.096-8.729-11.433-15-21.21-15-9.778 0-18.114 6.271-21.21 15h-182.29c-24.813 0-45 20.187-45 45s20.187 45 45 45h182.29c3.096 8.729 11.432 15 21.21 15 9.777 0 18.114-6.271 21.21-15h16.29v38.79c-8.729 3.096-15 11.433-15 21.21 0 4.627 1.405 8.931 3.809 12.511-11.23 6.486-18.809 18.615-18.809 32.489 0 20.678 16.822 37.5 37.5 37.5h181c20.678 0 37.5-16.822 37.5-37.5 0-13.874-7.579-26.003-18.809-32.489zm-26.191-200.011v165h-166v-165zm-173.5-90h181c12.406 0 22.5 10.093 22.5 22.5s-10.094 22.5-22.5 22.5h-181c-12.406 0-22.5-10.093-22.5-22.5s10.094-22.5 22.5-22.5zm181 60c4.136 0 7.5 3.364 7.5 7.5s-3.364 7.5-7.5 7.5h-181c-4.136 0-7.5-3.364-7.5-7.5s3.364-7.5 7.5-7.5zm-248.5 82.5v60h-15v-60zm-211 30c0-16.542 13.458-30 30-30h151v60h-151c-16.542 0-30-13.458-30-30zm241 37.5c0 4.136-3.364 7.5-7.5 7.5s-7.5-3.364-7.5-7.5v-75c0-4.136 3.364-7.5 7.5-7.5s7.5 3.364 7.5 7.5zm15-7.5v-60h15v60zm15 75c0-4.136 3.364-7.5 7.5-7.5h181c4.136 0 7.5 3.364 7.5 7.5s-3.364 7.5-7.5 7.5h-181c-4.136 0-7.5-3.364-7.5-7.5zm188.5 67.5h-181c-12.406 0-22.5-10.093-22.5-22.5s10.094-22.5 22.5-22.5h181c12.406 0 22.5 10.093 22.5 22.5s-10.094 22.5-22.5 22.5z" data-original="#000000" class="active-path" data-old_color="#000000" fill="#FFFFFF"/></g></g> </svg>
